# xmcd
#
# Track frame offsets:
#	150
#	5015
#	20668
#	32590
#	47579
#	57746
#	73632
#	81449
#	99186
#	124212
#	133825
#	143056
#	159308
#	167637
#	172437
#	178440
#	190986
#	203649
#	222770
#
# Disc length: 3229 seconds
#
# Revision: 0
# Processed by: cddbd v1.5.2PL0 Copyright (c) Steve Scherf et al.
# Submitted via: EasyCDDAExtractor 16.0.6.1
#
DISCID=1c0c9b13
DTITLE=Χορωδία - Τραγούδια μεγάλου σηκωμού
DYEAR=2004
DGENRE=Πολιτική
TTITLE0=Άγνωστος - Ειγαγωγή
TTITLE1=Χορωδία - Το προσκλητήριο Διεθνούς [Άϊσλερ Χανς, ύμν.Γ Διεθνής]
TTITLE2=Χορωδία - Βαρσαβιάνκα [ύμνος Κομμουν. Διεθνούς Νέων]
TTITLE3=Χορωδία - Χρόνια οι εργάτες [γρ. 1930]
TTITLE4=Χορωδία - Δημητρώφ [διασκ. του ''Εμπρός Κόκκινε Στρατέ'']
TTITLE5=Χορωδία - Απόψε θα πλαγιάσουμε
TTITLE6=Χορωδία - Συντρίβουμε πια [βαλκανικό παρτιζάνικο]
TTITLE7=Χορωδία - Είμαι του ΕΛΑΣ αντάρτης [διασκ. ρωσικού επαναστ. τρ.]
TTITLE8=Χορωδία - Αητός [διασκ. δημοτικού]
TTITLE9=Χορωδία - Παρτιζάνοι [παρτιζάνικο Σιβηρίας]
TTITLE10=Χορωδία - Ελλάδα είμαστε εμείς τα παιδιά σου
TTITLE11=Χορωδία - Της νέας Ελλάδας παιδιά σηκωθείτε [διασκ. ρωσικού]
TTITLE12=Χορωδία - Ύμνος του Δ.Σ.Ε.
TTITLE13=Χορωδία - Εμπρός επονίτες [γράφτ. από στελέχη ΕΠΟΝ]
TTITLE14=Χορωδία - Σφαίρες στη μέση [διασκ. ύμν. σοβιετ. αεροπορίας]
TTITLE15=Χορωδία - Ήρωες [γράφτ. μετά το 1950]
TTITLE16=Χορωδία - Παιδιά σηκωθείτε [γράφτ. στα χρόνια Γ Διεθνούς]
TTITLE17=Χορωδία - Μπελογιάννης [στ. αλβανού Μωϋσή Ζαλόσνια]
TTITLE18=Χορωδία - 4 Δεκέμβρη 1944 [εμβ. για τα θύματα της 3 Δεκ 44]
EXTD=
EXTT0=
EXTT1=
EXTT2=
EXTT3=
EXTT4=
EXTT5=
EXTT6=
EXTT7=
EXTT8=
EXTT9=
EXTT10=
EXTT11=
EXTT12=
EXTT13=
EXTT14=
EXTT15=
EXTT16=
EXTT17=
EXTT18=
PLAYORDER=
